<?xml version="1.0" standalone="no"?><!DOCTYPE svg PUBLIC "-//W3C//DTD SVG 1.1//EN" "http://www.w3.org/Graphics/SVG/1.1/DTD/svg11.dtd"><svg t="1741447254195" class="icon" viewBox="0 0 3276 1024" version="1.1" xmlns="http://www.w3.org/2000/svg" p-id="12352" xmlns:xlink="http://www.w3.org/1999/xlink" width="639.84375" height="200"><path d="M3174.4 0H102.4a102.4 102.4 0 0 0-102.4 102.4v819.2a102.4 102.4 0 0 0 102.4 102.4h3072a102.4 102.4 0 0 0 102.4-102.4V102.4a102.4 102.4 0 0 0-102.4-102.4z" fill="#000000" p-id="12353"></path><path d="M644.4032 248.85248l-7.04512 10.38336c53.53472 24.28928 89.78432 70.32832 89.78432 122.9824h-353.4848c0-52.65408 36.2496-98.69312 89.84576-122.9824l-7.10656-10.38336-7.0656-10.24-15.70816-22.97856a6.06208 6.06208 0 0 1 1.76128-8.51968 6.4512 6.4512 0 0 1 8.78592 1.72032l16.87552 24.63744 7.08608 10.3424 7.168 10.52672a212.70528 212.70528 0 0 1 75.10016-13.43488c26.84928 0 52.28544 4.8128 75.10016 13.43488l7.20896-10.52672 24.00256-34.97984a6.32832 6.32832 0 0 1 8.72448-1.72032 6.00064 6.00064 0 0 1 1.76128 8.51968l-15.72864 22.99904-7.0656 10.24z m-270.7456 157.94176h353.4848v270.336c0 21.46304-17.87904 38.912-39.97696 38.912h-28.8768c1.00352 3.2768 1.57696 6.656 1.57696 10.24v77.824c0 20.35712-16.9984 36.864-37.92896 36.864-20.8896 0-37.84704-16.50688-37.84704-36.864v-77.824c0-3.584 0.53248-6.9632 1.49504-10.24h-70.3488c0.96256 3.2768 1.536 6.656 1.536 10.24v77.824c0 20.35712-16.9984 36.864-37.888 36.864-20.91008 0-37.888-16.50688-37.888-36.864v-77.824c0-3.584 0.512-6.9632 1.51552-10.24H413.696c-22.09792 0-39.99744-17.44896-39.99744-38.912v-270.336z m-63.11936 0c-20.95104 0-37.888 16.50688-37.888 36.84352v157.696c0 20.35712 16.93696 36.864 37.888 36.864 20.8896 0 37.84704-16.50688 37.84704-36.864v-157.696c0-20.33664-16.95744-36.84352-37.84704-36.84352z m441.87648 36.84352c0-20.33664 16.95744-36.84352 37.888-36.84352 20.8896 0 37.86752 16.50688 37.86752 36.84352v157.696c0 20.35712-16.95744 36.864-37.86752 36.864-20.95104 0-37.888-16.50688-37.888-36.864v-157.696z m-308.49024-110.592a18.67776 18.67776 0 0 1-18.944-18.432 18.6368 18.6368 0 0 1 18.944-18.39104c10.4448 0 18.944 8.21248 18.944 18.41152 0 10.17856-8.47872 18.432-18.944 18.432z m132.56704-18.432c0 10.19904 8.45824 18.432 18.92352 18.432a18.67776 18.67776 0 0 0 18.944-18.432 18.6368 18.6368 0 0 0-18.944-18.39104 18.6368 18.6368 0 0 0-18.92352 18.41152z" fill="#FFFFFF" p-id="12354"></path><path d="M1037.5168 348.16v-122.83904h43.27424c9.66656 0 18.0224 1.49504 25.10848 4.5056 7.14752 2.92864 12.84096 7.168 17.1008 12.67712 4.25984 5.5296 7.3728 11.93984 9.35936 19.2512 2.048 7.2704 3.072 15.52384 3.072 24.76032 0 7.31136-0.6144 14.0288-1.82272 20.15232a61.5424 61.5424 0 0 1-5.9392 16.91648 45.1584 45.1584 0 0 1-10.4448 13.14816 44.544 44.544 0 0 1-15.4624 8.45824 68.608 68.608 0 0 1-20.97152 2.9696h-43.29472z m21.77024-18.18624h18.88256c11.65312 0 20.35712-3.44064 26.112-10.3424 5.81632-6.90176 8.72448-17.8176 8.72448-32.768 0-6.656-0.6144-12.53376-1.80224-17.63328a41.34912 41.34912 0 0 0-5.7344-13.59872 25.3952 25.3952 0 0 0-10.91584-9.07264 38.89152 38.89152 0 0 0-16.384-3.15392h-18.88256v86.56896z m106.7008-34.54976v-16.384c0-17.408 4.64896-31.10912 13.88544-41.12384 9.216-10.0352 21.83168-15.03232 37.7856-15.03232 15.9744 0 28.52864 4.99712 37.72416 15.03232 9.17504 10.01472 13.76256 23.71584 13.76256 41.12384v16.384c0 17.28512-4.62848 30.80192-13.86496 40.59136-9.17504 9.70752-21.8112 14.58176-37.888 14.58176-16.01536 0-28.59008-4.87424-37.70368-14.58176-9.1136-9.728-13.68064-23.26528-13.68064-40.59136z m21.97504 0.08192c0 12.00128 2.70336 21.11488 8.11008 27.36128 5.38624 6.18496 12.55424 9.27744 21.504 9.27744 8.88832 0 16.01536-3.09248 21.42208-9.27744 5.40672-6.2464 8.0896-15.36 8.0896-27.36128v-16.65024c0-12.06272-2.72384-21.31968-8.192-27.81184-5.38624-6.47168-12.4928-9.70752-21.31968-9.70752-8.88832 0-16.05632 3.23584-21.504 9.70752-5.40672 6.49216-8.11008 15.7696-8.11008 27.81184v16.65024z m105.3696-70.20544h23.9616l19.78368 90.19392h0.8192l22.48704-90.17344h19.72224l22.40512 90.17344h0.90112l19.70176-90.17344h23.9616L1414.18496 348.16h-19.968l-23.67488-88.4736h-0.8192L1346.08896 348.16h-19.98848l-32.768-122.83904zM1476.11648 348.16v-122.83904h18.82112l56.4224 85.93408h0.7168v-85.95456h20.6848V348.16h-18.61632l-56.60672-86.2208h-0.6144V348.16h-20.80768z m138.58816 0v-122.83904h21.77024v104.12032h53.4528V348.16h-75.22304z m97.36192-52.736v-16.384c0-17.408 4.62848-31.10912 13.86496-41.12384 9.23648-10.0352 21.83168-15.03232 37.80608-15.03232 15.95392 0 28.52864 4.99712 37.6832 15.03232 9.216 10.01472 13.78304 23.71584 13.78304 41.12384v16.384c0 17.28512-4.608 30.80192-13.86496 40.59136-9.17504 9.70752-21.8112 14.58176-37.888 14.58176-16.01536 0-28.59008-4.87424-37.70368-14.58176-9.1136-9.728-13.68064-23.26528-13.68064-40.59136z m21.95456 0.08192c0 12.00128 2.70336 21.11488 8.11008 27.36128 5.40672 6.18496 12.57472 9.27744 21.504 9.27744 8.88832 0 16.01536-3.09248 21.42208-9.27744 5.40672-6.2464 8.0896-15.36 8.0896-27.36128v-16.65024c0-12.06272-2.72384-21.31968-8.192-27.81184-5.38624-6.47168-12.4928-9.70752-21.2992-9.70752-8.88832 0-16.0768 3.23584-21.52448 9.70752-5.40672 6.49216-8.11008 15.7696-8.11008 27.81184v16.65024zM1838.14144 348.16l41.94304-122.83904h24.76032L1946.68544 348.16h-23.30624l-10.4448-33.11616h-42.3936L1860.096 348.16h-21.95456z m37.1712-49.68448h32.93184l-16.01536-51.11808h-0.8192l-16.09728 51.11808zM1976.64768 348.16v-122.83904h43.27424c9.66656 0 18.0224 1.49504 25.10848 4.5056 7.14752 2.92864 12.84096 7.168 17.1008 12.67712 4.25984 5.5296 7.39328 11.93984 9.35936 19.2512 2.048 7.2704 3.072 15.52384 3.072 24.76032 0 7.31136-0.59392 14.0288-1.80224 20.15232a61.68576 61.68576 0 0 1-5.9392 16.91648 45.2608 45.2608 0 0 1-10.4448 13.14816 44.50304 44.50304 0 0 1-15.48288 8.45824A68.608 68.608 0 0 1 2019.9424 348.16h-43.27424z m21.77024-18.18624h18.90304c11.63264 0 20.33664-3.44064 26.09152-10.3424 5.8368-6.90176 8.74496-17.8176 8.74496-32.768 0-6.656-0.6144-12.53376-1.80224-17.63328a41.51296 41.51296 0 0 0-5.75488-13.59872 25.37472 25.37472 0 0 0-10.89536-9.07264 38.89152 38.89152 0 0 0-16.384-3.15392h-18.90304v86.56896z m150.89664 18.18624l41.94304-122.83904h24.76032L2257.85856 348.16h-23.30624l-10.4448-33.11616h-42.3936L2171.2896 348.16h-21.97504z m37.1712-49.68448h32.95232l-16.03584-51.11808h-0.79872l-16.11776 51.11808zM2287.8208 348.16v-122.83904h47.88224c12.53376 0 22.46656 3.74784 29.77792 11.24352 7.33184 7.49568 10.97728 17.12128 10.97728 28.8768 0 11.83744-3.6864 21.42208-11.0592 28.81536-7.33184 7.3728-17.28512 11.0592-29.88032 11.0592h-25.92768V348.16h-21.77024z m21.77024-60.29312h15.74912c9.728 0 16.97792-1.6384 21.79072-4.87424 4.79232-3.2768 7.18848-9.13408 7.18848-17.55136 0-7.12704-1.9456-12.65664-5.8368-16.54784-3.91168-3.8912-9.35936-5.85728-16.384-5.85728h-22.50752v44.83072z m99.5328 60.29312v-122.83904h21.77024v56.32h1.00352l48.59904-56.32h24.20736l-44.38016 52.736L2506.77248 348.16h-26.46016l-36.00384-55.43936-13.4144 14.848V348.16h-21.77024z m171.15136-58.0608c0-21.58592 4.28032-38.15424 12.86144-49.664 8.64256-11.59168 20.29568-17.36704 34.9184-17.36704 5.9392 0 11.40736 0.94208 16.384 2.8672 5.03808 1.92512 9.15456 4.48512 12.32896 7.65952 3.19488 3.11296 5.71392 6.5536 7.55712 10.24 1.86368 3.72736 2.94912 7.51616 3.25632 11.34592h-20.80768c-0.4096-3.64544-2.3552-7.00416-5.8368-10.07616-3.42016-3.072-7.8848-4.58752-13.4144-4.58752-8.04864 0-14.45888 3.97312-19.2512 11.8784-4.75136 7.92576-7.20896 19.02592-7.39328 33.30048h0.8192c1.92512-4.85376 5.4272-9.05216 10.52672-12.5952 5.16096-3.54304 11.48928-5.3248 18.98496-5.3248 5.09952 0 9.97376 0.9216 14.58176 2.72384 4.68992 1.78176 8.84736 4.34176 12.51328 7.63904 3.72736 3.23584 6.69696 7.4752 8.9088 12.6976 2.21184 5.16096 3.33824 10.8544 3.33824 17.1008 0 8.74496-1.98656 16.384-5.9392 22.9376-3.97312 6.5536-9.25696 11.4688-15.85152 14.76608a48.96768 48.96768 0 0 1-22.05696 4.85376c-14.39744 0-25.72288-5.16096-34.01728-15.48288-8.27392-10.32192-12.41088-25.2928-12.41088-44.91264z m23.30624 18.82112c0 7.49568 2.2528 13.4144 6.7584 17.73568 4.48512 4.25984 10.01472 6.38976 16.54784 6.38976 6.43072 0 11.81696-2.10944 16.19968-6.30784 4.38272-4.1984 6.57408-10.1376 6.57408-17.8176 0-7.61856-2.2528-13.55776-6.7584-17.8176a22.3232 22.3232 0 0 0-16.19968-6.47168 22.528 22.528 0 0 0-16.46592 6.5536c-4.44416 4.38272-6.656 10.30144-6.656 17.73568z m100.51584 37.51936a11.9808 11.9808 0 0 1-3.6864-9.07264c0-3.72736 1.18784-6.71744 3.60448-9.0112a12.86144 12.86144 0 0 1 9.09312-3.42016 12.9024 12.9024 0 0 1 9.25696 3.52256c2.4576 2.2528 3.6864 5.24288 3.6864 8.9088 0 3.70688-1.2288 6.7584-3.6864 9.09312a13.1072 13.1072 0 0 1-9.25696 3.39968 12.77952 12.77952 0 0 1-9.0112-3.39968z m51.28192-55.25504v-8.8064c0-18.18624 4.03456-32.64512 12.06272-43.39712 8.04864-10.73152 19.29216-16.09728 33.75104-16.09728s25.62048 5.3248 33.4848 16.01536c7.86432 10.69056 11.79648 25.16992 11.79648 43.47904v8.8064c0 11.71456-1.69984 21.99552-5.05856 30.88384-3.35872 8.8064-8.51968 15.7696-15.4624 20.8896-6.9632 5.07904-15.33952 7.63904-25.12896 7.63904-14.45888 0-25.64096-5.34528-33.56672-16.03584-7.90528-10.67008-11.8784-25.12896-11.8784-43.37664z m21.79072-0.16384c0 13.37344 2.08896 23.6544 6.28736 30.86336 4.25984 7.12704 10.09664 10.71104 17.46944 10.71104s13.18912-3.60448 17.44896-10.81344c4.25984-7.18848 6.38976-17.44896 6.38976-30.76096v-8.56064c0-13.312-2.12992-23.552-6.38976-30.67904-4.25984-7.20896-10.07616-10.81344-17.44896-10.81344s-13.2096 3.60448-17.46944 10.79296c-4.1984 7.168-6.28736 17.38752-6.28736 30.69952v8.56064z m98.34496 16.73216v-17.8176h35.81952v-37.1712h18.00192v37.1712h36.00384v17.8176h-36.00384v38.7072h-18.00192v-38.7072h-35.81952zM1007.4112 788.48l107.19232-313.9584h63.26272l106.94656 313.9584h-59.57632l-26.68544-84.64384h-108.3392L1063.56736 788.48h-56.1152z m95.0272-126.976h84.1728l-40.96-130.62144h-2.048L1102.4384 661.504z m216.30976 126.976V545.13664h53.3504v34.28352h2.06848c4.608-10.4448 13.02528-19.41504 25.31328-26.9312 12.24704-7.49568 27.19744-11.264 44.8512-11.264 24.9856 0 45.38368 7.5776 61.17376 22.77376 15.93344 15.03232 23.92064 36.2496 23.92064 63.6928V788.48h-54.51776v-143.74912c0-37.72416-16.7936-56.58624-50.3808-56.58624-16.0768 0-28.73344 4.99712-37.92896 14.9504-9.05216 9.97376-13.57824 24.3712-13.57824 43.25376v142.1312h-54.272z m257.024-108.09344v-27.60704c0-33.8944 8.13056-60.86656 24.3712-80.95744 16.26112-20.0704 39.17824-30.12608 68.77184-30.12608 18.10432 0 33.19808 3.60448 45.32224 10.79296 12.10368 7.0656 20.31616 16.26112 24.59648 27.60704h2.06848v-122.12224h54.272V788.48h-53.12512v-37.2736h-2.048c-3.3792 11.3664-11.42784 20.95104-24.1664 28.75392-12.71808 7.82336-28.3648 11.73504-46.8992 11.73504-29.45024 0-52.38784-9.95328-68.79232-29.9008-16.24064-20.0704-24.3712-47.22688-24.3712-81.408z m55.41888-5.5296c0 22.69184 4.68992 40.5504 14.04928 53.59616 9.33888 12.88192 22.99904 19.31264 40.91904 19.31264 17.03936 0 30.37184-6.28736 40.0384-18.8416 9.80992-12.73856 14.70464-30.59712 14.70464-53.59616v-18.18624c0-22.07744-4.97664-39.48544-14.9504-52.20352-9.80992-12.71808-23.36768-19.08736-40.69376-19.08736-17.63328 0-31.06816 6.51264-40.26368 19.53792-9.19552 13.04576-13.80352 30.76096-13.80352 53.1456v16.32256zM1857.41312 788.48V545.13664h54.272v31.51872h2.06848c9.216-23.47008 28.4672-35.18464 57.7536-35.18464 6.26688 0 12.24704 0.53248 17.92 1.59744v47.616c-3.82976-1.2288-11.34592-1.8432-22.528-1.8432-36.18816 0-54.272 18.8416-54.272 56.58624V788.48h-55.21408z m151.67488-113.39776v-17.24416c0-22.69184 3.91168-42.7008 11.73504-60.02688a93.7984 93.7984 0 0 1 37.02784-41.39008c16.71168-10.28096 36.9664-15.42144 60.7232-15.42144 35.57376 0 62.64832 10.58816 81.2032 31.744 18.69824 20.992 28.0576 49.29536 28.0576 84.86912v17.46944c0 36.49536-9.27744 65.24928-27.83232 86.26176-18.55488 20.84864-45.69088 31.27296-81.42848 31.27296-35.71712 0-62.93504-10.42432-81.65376-31.27296-18.55488-20.84864-27.83232-49.60256-27.83232-86.26176z m54.51776-1.37216c0 10.4448 0.9216 19.92704 2.7648 28.52864 1.8432 8.58112 4.75136 16.54784 8.74496 23.90016 3.97312 7.20896 9.64608 12.9024 17.01888 17.03936 7.35232 4.13696 16.1792 6.20544 26.43968 6.20544 10.11712 0 18.86208-2.00704 26.2144-5.98016 7.3728-4.13696 12.96384-9.89184 16.7936-17.26464 3.9936-7.35232 6.81984-15.31904 8.51968-23.90016 1.8432-8.6016 2.7648-18.10432 2.7648-28.52864v-14.0288c0-10.58816-0.9216-20.1728-2.7648-28.75392a84.00896 84.00896 0 0 0-8.51968-23.92064 41.22624 41.22624 0 0 0-17.01888-16.9984c-7.20896-4.15744-15.872-6.22592-25.98912-6.22592-10.11712 0-18.92352 2.06848-26.43968 6.20544-7.3728 4.13696-13.04576 9.89184-17.01888 17.24416a85.36064 85.36064 0 0 0-8.74496 23.92064c-1.8432 8.6016-2.7648 18.10432-2.7648 28.52864v14.0288z m219.5456-167.89504a27.25888 27.25888 0 0 1-8.97024-20.93056c0-8.43776 2.99008-15.33952 8.97024-20.70528 6.12352-5.5296 13.86496-8.27392 23.22432-8.27392 9.80992 0 17.7152 2.74432 23.69536 8.27392 6.12352 5.36576 9.19552 12.26752 9.19552 20.6848 0 8.45824-2.99008 15.42144-8.97024 20.95104-5.98016 5.36576-13.94688 8.04864-23.92064 8.04864-9.35936 0-17.1008-2.68288-23.22432-8.04864z m-3.46112 282.66496V545.13664h54.29248V788.48h-54.29248z m106.61888-108.09344v-27.60704c0-33.8944 8.13056-60.86656 24.3712-80.95744 16.26112-20.0704 39.17824-30.12608 68.77184-30.12608 18.10432 0 33.19808 3.60448 45.32224 10.79296 12.10368 7.0656 20.31616 16.26112 24.59648 27.60704h2.06848v-122.12224h54.29248V788.48h-53.12512v-37.2736h-2.08896c-3.35872 11.3664-11.40736 20.95104-24.14592 28.75392-12.71808 7.82336-28.3648 11.73504-46.91968 11.73504-29.42976 0-52.36736-9.95328-68.77184-29.9008-16.24064-20.0704-24.3712-47.22688-24.3712-81.408z m55.41888-5.5296c0 22.69184 4.68992 40.5504 14.04928 53.59616 9.33888 12.88192 22.99904 19.31264 40.93952 19.31264 17.01888 0 30.35136-6.28736 40.01792-18.8416 9.80992-12.73856 14.70464-30.59712 14.70464-53.59616v-18.18624c0-22.07744-4.97664-39.48544-14.9504-52.20352-9.80992-12.71808-23.36768-19.08736-40.69376-19.08736-17.63328 0-31.04768 6.51264-40.26368 19.53792-9.19552 13.04576-13.80352 30.76096-13.80352 53.1456v16.32256z" fill="#FFFFFF" p-id="12355"></path></svg>