<?xml version="1.0" standalone="no"?><!DOCTYPE svg PUBLIC "-//W3C//DTD SVG 1.1//EN" "http://www.w3.org/Graphics/SVG/1.1/DTD/svg11.dtd"><svg t="1741447360118" class="icon" viewBox="0 0 3276 1024" version="1.1" xmlns="http://www.w3.org/2000/svg" p-id="4777" xmlns:xlink="http://www.w3.org/1999/xlink" width="639.84375" height="200"><path d="M3174.4 0H102.4a102.4 102.4 0 0 0-102.4 102.4v819.2a102.4 102.4 0 0 0 102.4 102.4h3072a102.4 102.4 0 0 0 102.4-102.4V102.4a102.4 102.4 0 0 0-102.4-102.4z" fill="#000000" p-id="4778"></path><path d="M521.6256 603.46368a99.5328 99.5328 0 0 1-99.36896-99.38944 99.5328 99.5328 0 0 1 99.38944-99.4304 99.5328 99.5328 0 0 1 99.40992 99.4304 99.5328 99.5328 0 0 1-99.40992 99.38944h-0.02048z" fill="#4285F4" p-id="4779"></path><path d="M563.5072 621.13792a126.8736 126.8736 0 0 1-123.96544-21.34016 126.62784 126.62784 0 0 1-39.56736-57.71264l-0.06144-0.14336-109.54752-189.70624a273.98144 273.98144 0 0 0-39.3216 203.6736 274.10432 274.10432 0 0 0 117.06368 175.7184 274.0224 274.0224 0 0 0 105.00096 42.3936l90.39872-152.86272v-0.02048z" fill="#4AAE48" p-id="4780"></path><path d="M770.1504 379.8016a278.3232 278.3232 0 0 0-465.05984-51.8144l92.52864 160.256a124.25216 124.25216 0 0 1 121.50784-108.4416h251.02336z" fill="#EA3939" p-id="4781"></path><path d="M520.54016 778.24c69.34528 0 135.72096-26.0096 186.85952-73.216a274.90304 274.90304 0 0 0 87.92064-181.8624 277.6064 277.6064 0 0 0-17.14176-118.51776h-181.00224a126.83264 126.83264 0 0 1 48.128 100.00384 127.3856 127.3856 0 0 1-27.21792 77.88544l-115.38432 195.1744c5.9392 0.34816 11.93984 0.53248 17.8176 0.53248z" fill="#FED14B" p-id="4782"></path><path d="M1419.38688 260.79232H1371.9552a72.51968 72.51968 0 0 0-10.19904-26.76736 74.8544 74.8544 0 0 0-18.24768-19.61984 78.60224 78.60224 0 0 0-24.18688-12.16512 94.4128 94.4128 0 0 0-28.13952-4.11648c-17.96096 0-34.03776 4.5056-48.2304 13.53728-14.09024 9.0112-25.25184 22.26176-33.46432 39.71072-8.11008 17.44896-12.16512 38.74816-12.16512 63.8976 0 25.35424 4.05504 46.75584 12.16512 64.18432 8.192 17.44896 19.41504 30.63808 33.60768 39.56736 14.21312 8.9088 30.18752 13.37344 47.9232 13.37344 9.8304 0 19.16928-1.31072 27.99616-3.95264 8.92928-2.74432 16.9984-6.7584 24.18688-12.02176a72.84736 72.84736 0 0 0 28.75392-45.79328l47.45216 0.16384a127.0784 127.0784 0 0 1-14.7456 42.2912 116.69504 116.69504 0 0 1-27.8528 33.1776c-11.264 9.216-24.12544 16.36352-38.62528 21.44256a142.90944 142.90944 0 0 1-47.47264 7.59808c-26.97216 0-50.9952-6.38976-72.0896-19.16928-21.0944-12.88192-37.74464-31.29344-49.90976-55.21408-12.0832-23.94112-18.10432-52.49024-18.10432-85.64736 0-33.28 6.08256-61.82912 18.24768-85.64736 12.1856-23.94112 28.81536-42.2912 49.90976-55.0912 21.0944-12.86144 45.07648-19.31264 71.94624-19.31264 16.54784 0 31.9488 2.39616 46.24384 7.168a122.0608 122.0608 0 0 1 38.8096 20.6848c11.4688 9.0112 20.93056 20.0704 28.44672 33.15712 7.49568 12.98432 12.57472 27.8528 15.21664 44.56448z m98.0992 71.51616V471.04h-45.48608V159.47776h44.87168v115.9168h2.88768a67.1744 67.1744 0 0 1 25.10848-29.96224c11.264-7.39328 25.94816-11.10016 44.11392-11.10016 16.01536 0 30.02368 3.2768 41.984 9.89184 12.0832 6.59456 21.4016 16.42496 27.99616 29.4912 6.69696 13.0048 10.0352 29.22496 10.0352 48.70144V471.04h-45.4656v-143.1552c0-17.14176-4.42368-30.4128-13.25056-39.85408-8.82688-9.54368-21.0944-14.29504-36.82304-14.29504a60.2112 60.2112 0 0 0-28.89728 6.84032 49.3568 49.3568 0 0 0-19.92704 20.0704c-4.77184 8.72448-7.168 19.27168-7.168 31.66208zM1729.69984 471.04V237.3632h43.97056v37.13024h2.41664a56.48384 56.48384 0 0 1 22.528-29.67552 64.4096 64.4096 0 0 1 36.80256-10.93632 194.62144 194.62144 0 0 1 19.33312 1.06496v43.49952a81.3056 81.3056 0 0 0-9.74848-1.67936 92.81536 92.81536 0 0 0-13.98784-1.06496c-10.752 0-20.33664 2.29376-28.75392 6.8608a50.87232 50.87232 0 0 0-27.07456 45.7728V471.04h-45.48608z m254.464 4.7104c-21.9136 0-41.02144-5.0176-57.344-15.0528-16.32256-10.0352-28.99968-24.08448-38.03136-42.14784-9.03168-18.04288-13.53728-39.13728-13.53728-63.2832 0-24.22784 4.5056-45.42464 13.5168-63.5904 9.05216-18.14528 21.7088-32.23552 38.05184-42.2912 16.32256-10.0352 35.4304-15.0528 57.344-15.0528 21.9136 0 41.02144 5.0176 57.344 15.0528 16.34304 10.0352 29.02016 24.14592 38.05184 42.2912 9.0112 18.16576 13.53728 39.36256 13.53728 63.5904 0 24.14592-4.52608 45.24032-13.53728 63.2832-9.03168 18.06336-21.7088 32.11264-38.05184 42.14784-16.32256 10.0352-35.4304 15.0528-57.344 15.0528z m0.16384-38.17472c14.19264 0 25.94816-3.74784 35.28704-11.264 9.33888-7.49568 16.22016-17.48992 20.6848-29.96224a119.1936 119.1936 0 0 0 6.84032-41.22624c0-14.90944-2.27328-28.61056-6.84032-41.08288-4.46464-12.57472-11.34592-22.67136-20.6848-30.26944-9.33888-7.59808-21.0944-11.40736-35.28704-11.40736-14.31552 0-26.17344 3.80928-35.61472 11.40736-9.3184 7.59808-16.26112 17.69472-20.82816 30.26944a121.15968 121.15968 0 0 0-6.69696 41.08288c0 15.01184 2.23232 28.75392 6.69696 41.22624 4.56704 12.47232 11.50976 22.46656 20.82816 29.96224 9.4208 7.51616 21.2992 11.264 35.61472 11.264zM2143.8464 471.04V237.3632h43.66336v38.03136h2.88768a60.25216 60.25216 0 0 1 23.87968-30.1056c11.0592-7.31136 24.28928-10.9568 39.71072-10.9568 15.60576 0 28.69248 3.64544 39.23968 10.9568 10.6496 7.29088 18.51392 17.34656 23.57248 30.1056h2.43712a65.86368 65.86368 0 0 1 26.624-29.7984c12.16512-7.51616 26.68544-11.264 43.52-11.264 21.1968 0 38.48192 6.63552 51.87584 19.92704 13.47584 13.29152 20.23424 33.32096 20.23424 60.08832V471.04h-45.48608v-152.43264c0-15.81056-4.32128-27.27936-12.94336-34.38592-8.62208-7.08608-18.90304-10.6496-30.88384-10.6496-14.80704 0-26.3168 4.56704-34.52928 13.70112-8.21248 9.0112-12.32896 20.64384-12.32896 34.816V471.04h-45.32224v-155.32032c0-12.6976-3.95264-22.87616-11.8784-30.57664-7.90528-7.72096-18.18624-11.5712-30.86336-11.5712-8.62208 0-16.5888 2.29376-23.90016 6.8608a50.36032 50.36032 0 0 0-17.48992 18.69824c-4.36224 8.02816-6.53312 17.3056-6.53312 27.8528V471.04h-45.48608z m479.31392 4.7104c-23.01952 0-42.86464-4.9152-59.4944-14.7456a100.1472 100.1472 0 0 1-38.33856-41.84064c-8.9088-18.04288-13.37344-39.19872-13.37344-63.44704 0-23.92064 4.46464-45.01504 13.37344-63.2832 9.03168-18.2272 21.6064-32.50176 37.74464-42.74176 16.22016-10.24 35.18464-15.36 56.89344-15.36 13.18912 0 25.94816 2.17088 38.33856 6.5536a92.7744 92.7744 0 0 1 33.30048 20.52096c9.85088 9.33888 17.6128 21.46304 23.28576 36.352 5.67296 14.80704 8.51968 32.80896 8.51968 54.00576v16.13824h-185.7536V333.824h141.16864c0-11.9808-2.41664-22.56896-7.29088-31.80544a55.25504 55.25504 0 0 0-20.54144-22.05696c-8.72448-5.36576-18.96448-8.04864-30.72-8.04864-12.77952 0-23.94112 3.13344-33.4848 9.4208a63.2832 63.2832 0 0 0-21.89312 24.35072 70.16448 70.16448 0 0 0-7.61856 32.39936v26.624c0 15.60576 2.74432 28.89728 8.21248 39.85408 5.59104 10.9568 13.35296 19.31264 23.28576 25.10848 9.9328 5.67296 21.54496 8.4992 34.83648 8.4992 8.62208 0 16.4864-1.20832 23.57248-3.64544a50.7904 50.7904 0 0 0 18.41152-11.264c5.18144-4.95616 9.13408-11.10016 11.8784-18.39104l43.04896 7.76192a78.09024 78.09024 0 0 1-18.57536 33.30048c-8.8064 9.4208-19.92704 16.7936-33.30048 22.05696-13.29152 5.18144-28.44672 7.7824-45.48608 7.7824zM1160.62208 860.16V548.59776h195.33824v40.46848h-148.31616v94.9248h138.11712v40.32512h-138.11712v95.37536h150.13888V860.16h-197.16096zM1451.008 626.4832l51.56864 90.97216 52.0192-90.95168h49.7664l-72.88832 116.81792L1604.95616 860.16h-49.7664l-52.6336-87.32672L1450.10688 860.16H1400.2176l72.704-116.8384-71.80288-116.8384h49.90976z m309.12512 0v36.51584H1632.4608v-36.49536h127.65184z m-93.40928-55.97184h45.4656V791.552c0 8.8064 1.3312 15.4624 3.97312 19.92704 2.64192 4.36224 6.02112 7.35232 10.17856 8.97024 4.25984 1.536 8.88832 2.29376 13.84448 2.29376 3.66592 0 6.8608-0.26624 9.58464-0.75776l6.38976-1.2288 8.21248 37.5808c-2.62144 1.024-6.36928 2.02752-11.264 3.03104a89.12896 89.12896 0 0 1-18.2272 1.8432 80.0768 80.0768 0 0 1-33.4848-6.38976 57.40544 57.40544 0 0 1-25.088-20.6848c-6.38976-9.33888-9.58464-21.05344-9.58464-35.14368V570.51136zM1908.6336 864.8704c-23.01952 0-42.84416-4.9152-59.47392-14.7456a100.08576 100.08576 0 0 1-38.33856-41.84064c-8.92928-18.04288-13.39392-39.19872-13.39392-63.42656 0-23.9616 4.46464-45.056 13.39392-63.2832 9.0112-18.26816 21.6064-32.52224 37.72416-42.76224 16.22016-10.24 35.18464-15.36 56.89344-15.36 13.18912 0 25.96864 2.17088 38.33856 6.5536a92.85632 92.85632 0 0 1 33.32096 20.52096c9.8304 9.33888 17.59232 21.46304 23.26528 36.352 5.67296 14.80704 8.51968 32.80896 8.51968 54.00576v16.13824h-185.7536V722.944h141.18912c0-11.96032-2.4576-22.56896-7.31136-31.80544a55.21408 55.21408 0 0 0-20.54144-22.05696c-8.704-5.36576-18.96448-8.04864-30.72-8.04864-12.77952 0-23.94112 3.13344-33.46432 9.4208a63.2832 63.2832 0 0 0-21.9136 24.35072 70.2464 70.2464 0 0 0-7.59808 32.39936v26.624c0 15.60576 2.72384 28.89728 8.192 39.85408a59.392 59.392 0 0 0 23.28576 25.10848c9.95328 5.67296 21.56544 8.51968 34.83648 8.51968 8.62208 0 16.4864-1.2288 23.59296-3.66592 7.08608-2.51904 13.23008-6.28736 18.39104-11.264 5.18144-4.95616 9.13408-11.10016 11.8784-18.39104l43.04896 7.76192a77.96736 77.96736 0 0 1-18.55488 33.30048c-8.82688 9.4208-19.92704 16.7936-33.32096 22.05696-13.29152 5.18144-28.44672 7.7824-45.4656 7.7824z m196.1984-143.44192V860.16h-45.48608V626.4832h43.66336v38.03136h2.88768a66.8672 66.8672 0 0 1 25.27232-29.7984c11.55072-7.51616 26.112-11.264 43.64288-11.264 15.93344 0 29.88032 3.33824 41.84064 10.0352 11.96032 6.59456 21.25824 16.42496 27.83232 29.51168 6.59456 13.08672 9.89184 29.26592 9.89184 48.5376V860.16h-45.48608v-143.1552c0-16.93696-4.4032-30.16704-13.23008-39.69024-8.82688-9.64608-20.95104-14.45888-36.352-14.45888a56.9344 56.9344 0 0 0-28.13952 6.84032 49.152 49.152 0 0 0-19.33312 20.0704c-4.66944 8.72448-7.00416 19.27168-7.00416 31.66208z m319.63136-94.94528v36.51584h-127.63136v-36.49536h127.63136z m-93.40928-55.97184h45.48608V791.552c0 8.8064 1.31072 15.4624 3.95264 19.92704 2.64192 4.36224 6.0416 7.35232 10.19904 8.97024 4.25984 1.536 8.86784 2.29376 13.84448 2.29376 3.64544 0 6.84032-0.26624 9.58464-0.75776l6.38976-1.2288 8.21248 37.5808a76.5952 76.5952 0 0 1-11.264 3.03104 89.16992 89.16992 0 0 1-18.24768 1.8432 80.01536 80.01536 0 0 1-33.46432-6.38976 57.344 57.344 0 0 1-25.10848-20.6848c-6.38976-9.33888-9.58464-21.05344-9.58464-35.14368V570.51136zM2474.78272 860.16V626.4832h45.48608V860.16h-45.48608z m22.95808-269.7216c-7.90528 0-14.70464-2.64192-20.3776-7.90528a25.76384 25.76384 0 0 1-8.37632-19.16928c0-7.51616 2.80576-13.90592 8.37632-19.16928 5.67296-5.36576 12.47232-8.06912 20.3776-8.06912 7.92576 0 14.66368 2.68288 20.23424 8.06912 5.69344 5.26336 8.51968 11.6736 8.51968 19.16928 0 7.39328-2.82624 13.78304-8.51968 19.16928a28.34432 28.34432 0 0 1-20.23424 7.90528z m182.14912 274.432c-21.9136 0-41.04192-5.0176-57.36448-15.0528-16.32256-10.0352-28.99968-24.08448-38.03136-42.14784-9.03168-18.04288-13.53728-39.13728-13.53728-63.2832 0-24.22784 4.5056-45.42464 13.53728-63.5904 9.03168-18.14528 21.7088-32.23552 38.03136-42.2912 16.32256-10.0352 35.45088-15.0528 57.36448-15.0528 21.89312 0 41.02144 5.0176 57.344 15.0528 16.32256 10.0352 28.99968 24.14592 38.03136 42.2912 9.03168 18.16576 13.53728 39.36256 13.53728 63.5904 0 24.14592-4.5056 45.24032-13.53728 63.2832-9.03168 18.06336-21.7088 32.11264-38.03136 42.14784-16.32256 10.0352-35.45088 15.0528-57.344 15.0528z m0.14336-38.17472c14.19264 0 25.96864-3.74784 35.28704-11.264 9.33888-7.49568 16.24064-17.48992 20.6848-29.96224 4.56704-12.4928 6.8608-26.2144 6.8608-41.22624 0-14.90944-2.29376-28.61056-6.8608-41.08288-4.44416-12.57472-11.34592-22.67136-20.6848-30.26944-9.3184-7.59808-21.0944-11.40736-35.28704-11.40736-14.29504 0-26.17344 3.80928-35.59424 11.40736-9.33888 7.59808-16.2816 17.69472-20.84864 30.26944a121.11872 121.11872 0 0 0-6.69696 41.08288c0 15.01184 2.23232 28.75392 6.69696 41.22624 4.56704 12.47232 11.50976 22.46656 20.84864 29.96224 9.4208 7.51616 21.2992 11.264 35.59424 11.264z m205.02528-105.2672V860.16h-45.48608V626.4832h43.66336v38.03136h2.88768a66.94912 66.94912 0 0 1 25.25184-29.7984c11.5712-7.51616 26.112-11.264 43.66336-11.264 15.93344 0 29.85984 3.33824 41.84064 10.0352 11.96032 6.59456 21.23776 16.42496 27.83232 29.51168 6.59456 13.08672 9.89184 29.26592 9.89184 48.5376V860.16h-45.48608v-143.1552c0-16.93696-4.4032-30.16704-13.23008-39.69024-8.82688-9.64608-20.95104-14.45888-36.37248-14.45888a56.9344 56.9344 0 0 0-28.13952 6.84032c-8.11008 4.56704-14.5408 11.264-19.31264 20.0704-4.66944 8.72448-7.00416 19.27168-7.00416 31.66208z" fill="#FFFFFF" p-id="4783"></path></svg>