<?xml version="1.0" standalone="no"?><!DOCTYPE svg PUBLIC "-//W3C//DTD SVG 1.1//EN" "http://www.w3.org/Graphics/SVG/1.1/DTD/svg11.dtd"><svg t="1741448526865" class="icon" viewBox="0 0 1024 1024" version="1.1" xmlns="http://www.w3.org/2000/svg" p-id="3613" xmlns:xlink="http://www.w3.org/1999/xlink" width="200" height="200"><path d="M754.005333 351.3344H388.232533" fill="#D8D8D8" p-id="3614"></path><path d="M388.266667 317.201067a34.133333 34.133333 0 1 0 0 68.266666h365.704533a34.133333 34.133333 0 1 0 0-68.266666H388.266667z" fill="#2C2C2C" p-id="3615"></path><path d="M754.005333 649.147733h-170.666666" fill="#D8D8D8" p-id="3616"></path><path d="M583.338667 615.0144a34.133333 34.133333 0 1 0 0 68.266667h170.666666a34.133333 34.133333 0 1 0 0-68.266667h-170.666666z" fill="#2C2C2C" p-id="3617"></path><path d="M256 17.066667a170.666667 170.666667 0 0 0-170.666667 170.666666V512a34.133333 34.133333 0 0 0 68.266667 0V187.733333a102.4 102.4 0 0 1 102.4-102.4h580.266667a102.4 102.4 0 0 1 102.4 102.4v648.533334a102.4 102.4 0 0 1-102.4 102.4h-168.516267a34.133333 34.133333 0 0 0 0 68.266666H836.266667a170.666667 170.666667 0 0 0 170.666666-170.666666v-648.533334a170.666667 170.666667 0 0 0-170.666666-170.666666h-580.266667z" fill="#2C2C2C" p-id="3618"></path><path d="M17.066667 836.266667a34.133333 34.133333 0 0 1 34.133333-34.133334h375.466667a34.133333 34.133333 0 0 1 0 68.266667h-375.466667a34.133333 34.133333 0 0 1-34.133333-34.133333z" fill="#2C2C2C" p-id="3619"></path><path d="M284.535467 725.230933a34.133333 34.133333 0 1 1 45.329066-50.9952l124.928 111.0016a68.266667 68.266667 0 0 1 0 102.058667l-124.928 111.0016a34.133333 34.133333 0 1 1-45.329066-50.9952l124.893866-111.035733-124.928-111.035734z" fill="#2C2C2C" p-id="3620"></path></svg>