<?xml version="1.0" standalone="no"?><!DOCTYPE svg PUBLIC "-//W3C//DTD SVG 1.1//EN" "http://www.w3.org/Graphics/SVG/1.1/DTD/svg11.dtd"><svg t="1741448573803" class="icon" viewBox="0 0 1024 1024" version="1.1" xmlns="http://www.w3.org/2000/svg" p-id="6542" xmlns:xlink="http://www.w3.org/1999/xlink" width="200" height="200"><path d="M632.832 485.888c46.08-36.352 75.776-92.16 75.776-155.136 0-109.056-88.576-197.12-197.12-197.12-109.056 0-197.12 88.576-197.12 197.12 0 62.976 29.696 118.784 75.776 155.136-121.344 48.64-207.36 166.912-207.36 305.152v65.536c0 18.432 14.848 32.768 32.768 32.768h591.872c18.432 0 32.768-14.848 32.768-32.768v-65.536c0-138.24-86.016-257.024-207.36-305.152z m-121.344-286.72c72.704 0 131.584 58.88 131.584 131.584s-58.88 131.584-131.584 131.584-131.584-58.88-131.584-131.584 58.88-131.584 131.584-131.584z m263.168 624.64H248.32v-32.768c0-144.896 118.272-263.168 263.168-263.168 144.896 0 263.168 118.272 263.168 263.168v32.768z m0 0" p-id="6543"></path><path d="M291.328 497.152c1.024-2.048 1.024-4.096 1.536-6.144 0.512-1.024 0.512-2.56 1.024-3.584 0-2.56 0-5.12-0.512-7.68v-4.096c0-1.024-0.512-1.536-1.024-2.048-0.512-1.536-1.024-2.56-2.048-4.096-1.536-3.072-3.072-5.632-4.608-7.68l-1.024-1.024c-3.072-3.072-6.656-5.632-10.24-7.168-35.84-15.872-58.368-51.2-58.368-90.112 0-45.568 31.232-84.992 75.264-95.744 17.92-4.096 28.672-22.016 24.064-39.936-4.096-17.408-22.016-28.16-39.936-24.064C201.216 221.696 149.504 287.232 149.504 363.52c0 41.472 15.872 80.896 42.496 110.08-85.504 44.544-141.312 133.12-141.312 233.472v50.688c0 18.432 14.848 32.768 32.768 32.768 18.432 0 32.768-14.848 32.768-32.768v-50.688c0-91.136 60.928-168.96 148.992-190.976 11.264-1.536 21.504-8.192 26.112-18.944z m0 0" p-id="6544"></path><path d="M830.464 474.112c27.136-29.696 42.496-68.608 42.496-110.08 0-74.24-50.176-139.776-121.856-158.72-17.408-4.608-35.328 5.632-40.448 23.04-4.608 17.408 5.632 35.84 23.04 40.448 43.008 11.776 73.216 50.688 73.216 95.232 0 38.912-23.04 74.24-58.368 90.112-4.096 1.536-7.68 4.096-10.752 7.168l-1.024 1.024c-2.048 2.048-3.584 5.12-5.12 7.68-0.512 1.536-1.536 2.56-2.048 4.096 0 0.512-1.024 1.536-1.024 2.048-0.512 1.536 0 2.56 0 4.096-0.512 2.56-0.512 5.12 0 7.68 0 1.536 0.512 2.56 1.024 3.584 0.512 2.048 0.512 4.096 1.536 6.144 4.608 10.752 14.848 17.408 25.6 18.944 87.552 22.016 148.992 100.352 148.992 190.976v50.688c0 17.92 14.848 32.768 32.768 32.768 17.92 0 32.768-14.848 32.768-32.768v-50.688c0.512-100.864-55.296-189.44-140.8-233.472z m0 0" p-id="6545"></path></svg>