<?xml version="1.0" standalone="no"?><!DOCTYPE svg PUBLIC "-//W3C//DTD SVG 1.1//EN" "http://www.w3.org/Graphics/SVG/1.1/DTD/svg11.dtd"><svg t="1741447285142" class="icon" viewBox="0 0 3276 1024" version="1.1" xmlns="http://www.w3.org/2000/svg" p-id="2475" xmlns:xlink="http://www.w3.org/1999/xlink" width="639.84375" height="200"><path d="M3155.43552 20.11136c27.0336 0 52.96128 11.12064 72.0896 30.90432a107.52 107.52 0 0 1 29.85984 74.62912v753.84832a107.52 107.52 0 0 1-29.85984 74.62912 100.2496 100.2496 0 0 1-72.0896 30.9248H121.36448a100.20864 100.20864 0 0 1-72.0896-30.9248 107.45856 107.45856 0 0 1-29.85984-74.62912V125.62432c0-27.97568 10.752-54.82496 29.85984-74.60864A100.20864 100.20864 0 0 1 121.36448 20.0704h3034.07104z m0-20.11136H121.36448A119.66464 119.66464 0 0 0 35.6352 36.90496 128.3072 128.3072 0 0 0 0 125.6448v753.84832a128.3072 128.3072 0 0 0 35.6352 88.73984 119.66464 119.66464 0 0 0 85.72928 36.90496h3034.07104a119.66464 119.66464 0 0 0 85.7088-36.90496A128.36864 128.36864 0 0 0 3276.8 879.49312V125.62432a128.34816 128.34816 0 0 0-35.65568-88.71936A119.66464 119.66464 0 0 0 3155.43552 0z m-2424.832 506.08128a149.7088 149.7088 0 0 1 18.28864-70.10304 143.62624 143.62624 0 0 1 48.70144-52.26496 146.51392 146.51392 0 0 0-49.4592-45.58848 140.94336 140.94336 0 0 0-63.8976-17.98144c-47.80032-5.03808-94.16704 29.63456-118.43584 29.63456-24.7808 0-62.13632-29.14304-102.68672-28.13952a147.37408 147.37408 0 0 0-73.78944 22.7328 154.13248 154.13248 0 0 0-53.39136 57.42592c-54.86592 98.75456-13.84448 243.5072 38.83008 323.1744 26.2144 39.17824 57.0368 82.65728 97.34144 81.14176 39.56736-1.76128 54.3744-26.13248 101.94944-26.13248 47.08352 0 60.90752 26.13248 101.92896 25.12896 42.496-0.75776 69.18144-39.19872 94.4128-78.6432a323.82976 323.82976 0 0 0 43.2128-90.97216 137.27744 137.27744 0 0 1-60.29312-51.79392 144.42496 144.42496 0 0 1-22.71232-77.6192zM652.92288 267.8784a145.96096 145.96096 0 0 0 31.80544-102.78912 138.4448 138.4448 0 0 0-91.25888 48.7424 139.83744 139.83744 0 0 0-32.52224 99.0208c17.6128 0.2048 35.04128-3.76832 50.9952-11.55072a117.22752 117.22752 0 0 0 41.00096-33.44384zM1301.504 800.5632h-55.0912l-30.1056-98.24256h-105.10336l-28.65152 98.24256H1028.9152l103.89504-334.4384h64.3072l104.38656 334.4384z m-94.4128-139.4688l-27.19744-87.4496c-2.90816-8.78592-8.4992-29.9008-16.50688-63.05792h-0.96256c-3.1744 14.336-8.25344 35.4304-15.29856 63.0784l-26.70592 87.4496h86.65088z m361.8816 15.85152a139.50976 139.50976 0 0 1-32.27648 97.23904c-9.0112 10.24-20.0704 18.35008-32.3584 23.81824-12.32896 5.44768-25.6 8.13056-38.99392 7.84384a69.0176 69.0176 0 0 1-37.64224-7.51616 72.04864 72.04864 0 0 1-28.38528-26.66496h-0.96256v127.16032h-51.712v-260.096c0-25.86624-0.7168-52.26496-1.9456-79.40096h45.40416l2.90816 38.1952h0.96256a93.4912 93.4912 0 0 1 30.76096-30.26944 89.2928 89.2928 0 0 1 82.432-5.3248 92.3648 92.3648 0 0 1 34.14016 26.05056 136.33536 136.33536 0 0 1 27.66848 88.96512z m-52.67456 2.00704a99.81952 99.81952 0 0 0-15.52384-58.0608 53.6576 53.6576 0 0 0-19.53792-17.8176 51.54816 51.54816 0 0 0-25.37472-6.0416c-12.6976 0-24.9856 4.62848-34.69312 13.06624a61.11232 61.11232 0 0 0-20.39808 34.67264c-1.47456 5.3248-2.29376 10.81344-2.43712 16.34304v40.20224a65.3312 65.3312 0 0 0 15.54432 44.2368c5.03808 5.91872 11.30496 10.60864 18.30912 13.7216 7.00416 3.13344 14.60224 4.62848 22.2208 4.36224 8.82688 0.36864 17.6128-1.55648 25.53856-5.59104 7.92576-4.03456 14.7456-10.07616 19.8656-17.53088 11.6736-18.18624 17.46944-39.75168 16.4864-61.56288z m320.4096-2.00704a140.5952 140.5952 0 0 1-32.0512 97.23904c-9.0112 10.24-20.0704 18.35008-32.3584 23.81824a91.19744 91.19744 0 0 1-38.99392 7.84384 69.0176 69.0176 0 0 1-37.62176-7.51616 72.04864 72.04864 0 0 1-28.40576-26.66496h-0.96256v127.16032h-51.93728v-260.096c0-25.86624-0.49152-52.26496-1.9456-79.40096h45.62944l2.90816 38.1952h0.98304A93.53216 93.53216 0 0 1 1692.672 567.296a89.2928 89.2928 0 0 1 82.432-5.3248 92.3648 92.3648 0 0 1 34.16064 26.05056 136.37632 136.37632 0 0 1 27.42272 88.96512z m-52.67456 2.00704a101.62176 101.62176 0 0 0-15.29856-58.0608 53.78048 53.78048 0 0 0-19.64032-17.85856 51.69152 51.69152 0 0 0-25.4976-6.00064 53.94432 53.94432 0 0 0-34.7136 13.06624 62.464 62.464 0 0 0-20.3776 34.67264c-1.31072 5.34528-2.048 10.83392-2.19136 16.34304v40.20224c-0.45056 16.24064 5.12 32.0512 15.52384 44.2368 5.03808 5.9392 11.28448 10.6496 18.30912 13.76256 7.00416 3.13344 14.60224 4.608 22.24128 4.3008 8.8064 0.34816 17.59232-1.57696 25.51808-5.61152s14.7456-10.0352 19.8656-17.48992c11.61216-18.2272 17.3056-39.77216 16.26112-61.56288z m352.19456 27.648a91.46368 91.46368 0 0 1-6.81984 38.0928 89.04704 89.04704 0 0 1-21.8112 31.49824 124.5184 124.5184 0 0 1-87.8592 29.14304 148.7872 148.7872 0 0 1-83.7632-20.84864l11.89888-44.48256a140.16512 140.16512 0 0 0 74.752 21.36064 69.30432 69.30432 0 0 0 45.64992-13.824c5.28384-4.3008 9.50272-9.87136 12.32896-16.1792 2.82624-6.3488 4.17792-13.27104 3.93216-20.25472a47.45216 47.45216 0 0 0-13.35296-34.42688 124.88704 124.88704 0 0 0-44.6464-25.62048c-56.56576-21.87264-84.72576-54.02624-84.72576-95.98976a88.00256 88.00256 0 0 1 7.35232-37.31456 85.1968 85.1968 0 0 1 22.26176-30.28992 114.7904 114.7904 0 0 1 79.11424-26.37824 152.53504 152.53504 0 0 1 73.3184 15.83104l-12.86144 43.7248a123.41248 123.41248 0 0 0-61.91104-15.33952 61.6448 61.6448 0 0 0-42.47552 13.824 39.46496 39.46496 0 0 0-9.78944 13.7216 40.7552 40.7552 0 0 0-3.31776 16.6912c-0.06144 6.2464 1.2288 12.43136 3.7888 18.08384s6.3488 10.6496 11.01824 14.58176a165.02784 165.02784 0 0 0 47.08352 25.88672 159.06816 159.06816 0 0 1 61.41952 40.69376 85.8112 85.8112 0 0 1 19.41504 57.79456z m171.13088-107.04896h-57.0368v117.08416c0 29.65504 10.17856 44.72832 30.33088 44.72832 7.68 0.1024 15.33952-0.73728 22.81472-2.51904l1.45408 40.71424a117.3504 117.3504 0 0 1-40.0384 5.77536 60.6208 60.6208 0 0 1-26.05056-4.3008 62.38208 62.38208 0 0 1-22.016-15.03232 97.64864 97.64864 0 0 1-17.24416-65.08544v-121.36448h-33.97632v-40.22272h33.97632v-44.2368l50.74944-15.81056v60.04736h57.0368v40.20224z m257.536 78.39744a135.70048 135.70048 0 0 1-30.84288 91.21792 108.76928 108.76928 0 0 1-38.64576 28.16 105.472 105.472 0 0 1-46.55104 8.51968 100.7616 100.7616 0 0 1-44.68736-8.13056 104.07936 104.07936 0 0 1-37.10976-27.0336 131.2768 131.2768 0 0 1-30.33088-88.71936 133.46816 133.46816 0 0 1 31.31392-91.70944 108.15488 108.15488 0 0 1 38.4-27.648 105.04192 105.04192 0 0 1 46.05952-8.2944 102.8096 102.8096 0 0 1 45.03552 8.27392 106.22976 106.22976 0 0 1 37.49888 27.15648 128.7168 128.7168 0 0 1 29.85984 88.20736z m-53.90336 1.76128a109.568 109.568 0 0 0-13.824-57.30304 51.77344 51.77344 0 0 0-19.1488-21.4016c-8.192-5.12-17.63328-7.72096-27.21792-7.49568a50.8928 50.8928 0 0 0-27.7504 7.43424c-8.41728 5.12-15.27808 12.53376-19.82464 21.46304a114.56512 114.56512 0 0 0-13.824 58.30656 111.616 111.616 0 0 0 13.824 57.0368c4.5056 8.84736 11.28448 16.24064 19.59936 21.34016 8.31488 5.12 17.83808 7.72096 27.48416 7.55712 9.60512 0.04096 19.0464-2.68288 27.21792-7.8848 8.192-5.18144 14.82752-12.63616 19.1488-21.504 9.95328-17.408 14.90944-37.35552 14.31552-57.5488z m222.1056-73.37984a113.31584 113.31584 0 0 0-16.50688-1.26976 46.81728 46.81728 0 0 0-23.67488 5.05856 48.59904 48.59904 0 0 0-18.30912 16.30208 81.18272 81.18272 0 0 0-13.1072 47.5136v126.62784h-51.712l0.49152-165.33504c0-27.648-0.49152-53.0432-1.9456-75.89888h45.13792l1.9456 46.24384h1.45408a82.39104 82.39104 0 0 1 25.74336-38.1952 60.60032 60.60032 0 0 1 37.376-13.06624c4.38272 0.04096 8.76544 0.38912 13.1072 1.00352v50.9952z m231.3216 62.0544c0.2048 8.192-0.45056 16.36352-1.9456 24.3712h-155.09504c-0.4096 10.26048 1.41312 20.48 5.30432 29.92128 3.91168 9.4208 9.80992 17.83808 17.26464 24.61696a74.07616 74.07616 0 0 0 50.72896 16.83456 169.02144 169.02144 0 0 0 62.85312-11.30496l8.02816 37.19168c-24.7808 10.50624-51.4048 15.5648-78.17216 14.82752a108.83072 108.83072 0 0 1-45.83424-7.168 111.77984 111.77984 0 0 1-39.1168-25.76384 122.34752 122.34752 0 0 1-24.14592-40.96 125.7472 125.7472 0 0 1-6.92224-47.47264 142.00832 142.00832 0 0 1 28.8768-90.97216 100.39296 100.39296 0 0 1 36.22912-29.32736 96.8704 96.8704 0 0 1 45.09696-9.37984c14.86848-0.8192 29.696 2.33472 43.06944 9.09312 13.37344 6.7584 24.86272 16.95744 33.3824 29.61408a135.0656 135.0656 0 0 1 20.39808 75.8784z m-49.27488-13.80352a75.5712 75.5712 0 0 0-10.19904-41.22624 45.73184 45.73184 0 0 0-17.6128-17.14176 43.8272 43.8272 0 0 0-23.6544-5.2224 47.5136 47.5136 0 0 0-23.1424 5.61152 49.5616 49.5616 0 0 0-17.87904 16.26112 79.872 79.872 0 0 0-15.27808 41.71776h107.76576zM1190.0928 260.3008a85.74976 85.74976 0 0 1-5.5296 36.4544 83.2512 83.2512 0 0 1-20.21376 30.39232 100.00384 100.00384 0 0 1-67.70688 20.60288c-12.41088 0.2048-24.82176-0.47104-37.15072-2.00704v-161.5872c14.5408-2.27328 29.24544-3.3792 43.95008-3.25632a93.73696 93.73696 0 0 1 62.8736 18.59584c8.06912 7.68 14.39744 17.12128 18.49344 27.648 4.11648 10.50624 5.9392 21.83168 5.28384 33.1776z m-26.95168 0.75776a55.43936 55.43936 0 0 0-2.51904-23.92064 53.9648 53.9648 0 0 0-12.36992-20.39808 51.58912 51.58912 0 0 0-19.74272-12.71808 50.176 50.176 0 0 0-23.1424-2.51904 95.19104 95.19104 0 0 0-20.3776 1.76128v122.88c5.7344 0.63488 11.4688 0.90112 17.22368 0.75776 8.192 0.57344 16.44544-0.6144 24.1664-3.52256a58.9824 58.9824 0 0 0 20.74624-13.312c5.65248-6.67648 9.99424-14.4384 12.73856-22.85568 2.74432-8.3968 3.87072-17.28512 3.2768-26.15296z m168.93952 25.12896a65.29024 65.29024 0 0 1-15.0528 44.72832 53.57568 53.57568 0 0 1-18.944 13.84448 51.89632 51.89632 0 0 1-22.79424 4.25984 49.5616 49.5616 0 0 1-22.03648-4.01408 51.17952 51.17952 0 0 1-18.26816-13.33248 64.34816 64.34816 0 0 1-14.80704-43.47904 66.7648 66.7648 0 0 1 15.29856-45.21984c5.3248-5.81632 11.75552-10.40384 18.92352-13.43488 7.168-3.05152 14.848-4.46464 22.58944-4.15744 7.5776-0.34816 15.11424 1.024 22.1184 4.03456 7.00416 2.99008 13.27104 7.53664 18.41152 13.312 9.99424 12.04224 15.19616 27.58656 14.56128 43.45856z m-26.2144 0.75776a57.20064 57.20064 0 0 0-6.79936-28.13952 26.86976 26.86976 0 0 0-9.66656-10.30144 25.68192 25.68192 0 0 0-26.76736 0c-4.05504 2.47808-7.39328 6.0416-9.68704 10.30144a55.35744 55.35744 0 0 0-7.02464 28.65152c-0.24576 9.87136 2.19136 19.61984 7.02464 28.13952 2.17088 4.34176 5.48864 7.9872 9.58464 10.46528 4.07552 2.49856 8.74496 3.74784 13.47584 3.60448 4.7104 0.02048 9.33888-1.31072 13.37344-3.82976 4.01408-2.53952 7.29088-6.144 9.44128-10.48576 4.83328-8.62208 7.2704-18.432 7.04512-28.40576z m217.00608-59.04384l-35.69664 118.35392h-23.30624l-15.03232-51.26144a367.06304 367.06304 0 0 1-8.99072-38.46144h-0.49152a294.76864 294.76864 0 0 1-9.216 38.46144l-15.7696 51.26144h-23.552l-33.73056-118.3744h26.2144l12.86144 56.29952c3.15392 13.312 5.81632 26.13248 7.7824 37.94944h0.47104c1.9456-9.80992 5.09952-22.36416 9.46176-37.6832l16.26112-56.54528h20.62336l15.54432 55.27552c3.8912 13.57824 6.79936 26.624 9.216 39.19872h0.73728c1.90464-13.2096 4.5056-26.27584 7.7824-39.19872l13.824-55.296h24.9856z m131.7888 118.35392h-25.25184v-67.85024c0-20.86912-7.76192-31.17056-23.04-31.17056a21.85216 21.85216 0 0 0-10.21952 2.00704 22.58944 22.58944 0 0 0-8.23296 6.5536 31.744 31.744 0 0 0-7.04512 20.33664v70.12352h-25.47712v-84.43904c0-10.5472-0.24576-21.85216-0.98304-33.91488h22.3232l1.2288 18.59584h0.7168c3.05152-5.9392 7.5776-10.87488 13.1072-14.336a42.00448 42.00448 0 0 1 23.06048-6.77888c4.9152-0.18432 9.8304 0.69632 14.4384 2.53952 4.58752 1.86368 8.76544 4.66944 12.288 8.25344 4.62848 5.28384 8.192 11.4688 10.4448 18.20672 2.2528 6.7584 3.15392 13.88544 2.6624 21.01248v70.8608z m70.144 0h-25.23136v-172.6464h25.23136v172.6464z m149.77024-60.06784a65.29024 65.29024 0 0 1-15.0528 44.72832 53.57568 53.57568 0 0 1-18.944 13.84448 51.89632 51.89632 0 0 1-22.81472 4.25984 49.5616 49.5616 0 0 1-22.016-4.01408 51.17952 51.17952 0 0 1-18.26816-13.33248 64.34816 64.34816 0 0 1-14.80704-43.47904 66.7648 66.7648 0 0 1 15.29856-45.21984c5.3248-5.81632 11.75552-10.40384 18.92352-13.43488 7.14752-3.05152 14.848-4.46464 22.56896-4.15744 7.5776-0.34816 15.13472 1.024 22.1184 4.03456 7.00416 2.99008 13.312 7.53664 18.432 13.312 9.99424 12.04224 15.19616 27.58656 14.5408 43.45856z m-26.46016 0.75776a54.6816 54.6816 0 0 0-6.79936-28.13952 25.3952 25.3952 0 0 0-9.33888-10.38336 24.20736 24.20736 0 0 0-13.23008-3.6864 25.10848 25.10848 0 0 0-13.7216 3.56352c-4.15744 2.47808-7.55712 6.12352-9.8304 10.50624-4.68992 8.74496-7.02464 18.6368-6.79936 28.65152-0.2048 9.8304 2.1504 19.5584 6.79936 28.13952 2.2528 4.34176 5.61152 7.96672 9.728 10.4448 4.11648 2.47808 8.8064 3.72736 13.57824 3.62496 4.68992 0.04096 9.27744-1.26976 13.27104-3.80928 3.9936-2.51904 7.22944-6.18496 9.29792-10.52672 4.93568-8.56064 7.3728-18.432 7.04512-28.38528z m149.77024 59.31008h-23.06048l-1.69984-13.57824h-0.73728a39.64928 39.64928 0 0 1-14.76608 12.4928c-5.8368 2.8672-12.288 4.17792-18.71872 3.85024a33.66912 33.66912 0 0 1-14.2336-2.53952c-4.5056-1.8432-8.6016-4.66944-11.9808-8.27392a33.62816 33.62816 0 0 1-6.71744-11.1616 34.5088 34.5088 0 0 1-2.048-12.96384 37.64224 37.64224 0 0 1 4.36224-18.96448 36.0448 36.0448 0 0 1 13.12768-13.94688 86.40512 86.40512 0 0 1 49.27488-11.30496v-2.2528c0.38912-3.2768 0-6.61504-1.06496-9.70752a21.21728 21.21728 0 0 0-5.16096-8.192 20.2752 20.2752 0 0 0-8.15104-4.89472 19.74272 19.74272 0 0 0-9.4208-0.59392 52.98176 52.98176 0 0 0-29.83936 8.8064l-5.09952-17.34656a71.92576 71.92576 0 0 1 39.3216-10.30144 39.5264 39.5264 0 0 1 18.59584 2.2528c5.9392 2.2528 11.30496 5.89824 15.6672 10.6496 4.36224 4.75136 7.5776 10.48576 9.4208 16.75264 1.8432 6.26688 2.2528 12.9024 1.2288 19.33312v43.7248c-0.2048 9.4208 0.34816 18.8416 1.69984 28.16zM1971.4048 305.5616v-18.08384c-28.16-0.512-42.25024 7.2704-42.25024 23.8592a18.8416 18.8416 0 0 0 4.87424 13.824c3.50208 3.072 8.00768 4.68992 12.61568 4.5056 5.59104 0 11.01824-1.8432 15.52384-5.26336 4.54656-3.35872 7.68-8.3968 8.74496-14.06976 0.32768-1.57696 0.49152-3.1744 0.49152-4.77184z m170.86464 40.71424h-22.56896l-1.20832-18.8416h-0.73728c-3.33824 6.94272-8.62208 12.6976-15.1552 16.54784a36.82304 36.82304 0 0 1-21.48352 5.05856 41.82016 41.82016 0 0 1-19.12832-4.25984 43.4176 43.4176 0 0 1-15.36-12.57472 67.03104 67.03104 0 0 1-13.57824-43.47904c-0.77824-16.93696 4.5056-33.5872 14.80704-46.73536 4.38272-5.28384 9.80992-9.5232 15.93344-12.36992 6.12352-2.8672 12.77952-4.3008 19.49696-4.21888 6.26688-0.6144 12.55424 0.57344 18.20672 3.39968 5.65248 2.84672 10.42432 7.22944 13.84448 12.6976h0.49152V173.60896h25.47712v140.71808c0 11.5712 0.24576 22.36416 0.96256 31.92832z m-26.43968-49.7664v-19.8656c0-2.74432-0.16384-5.5296-0.49152-8.27392-1.41312-6.144-4.64896-11.6736-9.216-15.83104a23.83872 23.83872 0 0 0-16.9984-6.53312 25.55904 25.55904 0 0 0-12.71808 2.78528 26.56256 26.56256 0 0 0-9.85088 8.76544 52.67456 52.67456 0 0 0-8.00768 30.16704c-0.512 10.09664 2.21184 20.0704 7.76192 28.38528 2.47808 3.74784 5.81632 6.7584 9.70752 8.84736 3.91168 2.048 8.23296 3.072 12.61568 2.9696 3.82976 0.1024 7.63904-0.7168 11.10016-2.43712 3.46112-1.69984 6.47168-4.21888 8.8064-7.3728 4.95616-6.00064 7.55712-13.7216 7.29088-21.6064z m243.93728-10.30144a65.35168 65.35168 0 0 1-15.0528 44.72832 53.67808 53.67808 0 0 1-18.944 13.84448 51.87584 51.87584 0 0 1-22.81472 4.25984 49.54112 49.54112 0 0 1-22.016-4.01408 51.13856 51.13856 0 0 1-18.26816-13.33248 64.36864 64.36864 0 0 1-14.80704-43.47904 66.82624 66.82624 0 0 1 15.29856-45.21984 54.272 54.272 0 0 1 18.90304-13.43488c7.168-3.05152 14.86848-4.46464 22.58944-4.15744 7.5776-0.34816 15.11424 1.024 22.1184 4.03456 7.00416 2.99008 13.29152 7.53664 18.432 13.312 9.97376 12.04224 15.19616 27.58656 14.56128 43.45856z m-26.2144 0.75776a57.36448 57.36448 0 0 0-6.79936-28.13952 26.0096 26.0096 0 0 0-9.50272-10.36288 24.76032 24.76032 0 0 0-13.312-3.70688 25.55904 25.55904 0 0 0-13.66016 3.64544c-4.15744 2.4576-7.5776 6.08256-9.89184 10.42432-4.68992 8.74496-7.02464 18.6368-6.79936 28.65152-0.2048 9.8304 2.1504 19.5584 6.79936 28.13952 2.27328 4.28032 5.632 7.84384 9.70752 10.32192a25.47712 25.47712 0 0 0 26.8288-0.14336c4.03456-2.51904 7.35232-6.144 9.58464-10.4448 4.8128-8.6016 7.24992-18.432 7.04512-28.38528z m163.10272 59.31008h-25.47712v-67.85024c0-20.86912-7.53664-31.17056-23.06048-31.17056a22.46656 22.46656 0 0 0-10.17856 2.08896c-3.19488 1.47456-6.02112 3.6864-8.27392 6.47168a31.744 31.744 0 0 0-7.04512 20.33664v70.12352h-25.47712v-84.43904c0-10.5472-0.24576-21.85216-0.73728-33.91488h22.34368l1.20832 18.59584h0.73728c3.03104-5.9392 7.55712-10.87488 13.1072-14.336a40.83712 40.83712 0 0 1 23.04-6.77888c4.93568-0.16384 9.8304 0.7168 14.41792 2.58048 4.58752 1.8432 8.76544 4.64896 12.288 8.23296 4.64896 5.24288 8.21248 11.44832 10.46528 18.18624 2.2528 6.7584 3.15392 13.88544 2.64192 21.01248v70.8608z m171.13088-98.5088h-27.91424v57.5488c0 14.56128 4.85376 21.85216 14.80704 21.85216 3.82976 0.04096 7.65952-0.38912 11.40736-1.24928l0.47104 19.8656a53.26848 53.26848 0 0 1-19.6608 2.99008 28.52864 28.52864 0 0 1-12.8-2.02752 29.3888 29.3888 0 0 1-10.73152-7.51616 47.73888 47.73888 0 0 1-8.4992-31.90784v-59.55584h-16.75264v-19.8656h16.75264v-21.6064l25.00608-7.7824v29.40928h27.91424v19.84512z m134.69696 98.5088h-25.47712v-67.35872c0-21.0944-7.76192-31.66208-23.06048-31.66208a23.6544 23.6544 0 0 0-15.19616 4.83328 25.1904 25.1904 0 0 0-9.07264 13.5168 34.9184 34.9184 0 0 0-1.20832 9.54368v71.12704h-25.25184v-172.6464h25.25184v71.3728h0.47104c3.52256-6.144 8.58112-11.22304 14.6432-14.68416 6.06208-3.44064 12.92288-5.14048 19.82464-4.9152 4.85376-0.1024 9.66656 0.8192 14.17216 2.6624 4.5056 1.8432 8.6016 4.62848 12.04224 8.15104 4.56704 5.40672 8.06912 11.69408 10.26048 18.51392 2.21184 6.81984 3.09248 14.00832 2.60096 21.17632v70.36928z m138.8544-64.83968c0.1024 4.05504-0.22528 8.0896-0.98304 12.06272h-76.20608c-0.2048 5.05856 0.67584 10.11712 2.62144 14.7456 1.92512 4.66944 4.85376 8.8064 8.54016 12.14464 7.00416 5.77536 15.81056 8.72448 24.76032 8.2944a82.67776 82.67776 0 0 0 31.06816-5.77536l3.8912 18.3296a90.56256 90.56256 0 0 1-38.35904 7.29088 53.39136 53.39136 0 0 1-22.50752-3.4816 55.0912 55.0912 0 0 1-19.2512-12.5952 60.55936 60.55936 0 0 1-15.27808-43.47904c-0.6144-16.1792 4.38272-32.03072 14.06976-44.72832 4.8128-6.144 10.91584-11.0592 17.87904-14.336 6.94272-3.25632 14.5408-4.8128 22.17984-4.5056 7.2704-0.4096 14.52032 1.08544 21.05344 4.38272a43.008 43.008 0 0 1 16.32256 14.45888c7.04512 10.99776 10.60864 24.00256 10.19904 37.19168z m-24.2688-6.77888a35.84 35.84 0 0 0-4.85376-20.11136 22.67136 22.67136 0 0 0-8.6016-8.3968 21.64736 21.64736 0 0 0-11.55072-2.6624 23.1424 23.1424 0 0 0-11.53024 2.70336 24.1664 24.1664 0 0 0-8.86784 8.11008c-4.25984 5.9392-6.8608 12.98432-7.51616 20.35712h52.92032z" fill="#222222" p-id="2476"></path></svg>